<?xml version="1.0" encoding="UTF-8" standalone="no"?>
<svg width="600px" height="600px" viewBox="0 0 600 600" version="1.1" xmlns="http://www.w3.org/2000/svg" xmlns:xlink="http://www.w3.org/1999/xlink" xmlns:sketch="http://www.bohemiancoding.com/sketch/ns">
    <!-- Generator: Sketch 3.3.3 (12072) - http://www.bohemiancoding.com/sketch -->
    <title>noun_23352_cc</title>
    <desc>Created with Sketch.</desc>
    <defs></defs>
    <g id="Page-1" stroke="none" stroke-width="1" fill="none" fill-rule="evenodd" sketch:type="MSPage">
        <g id="noun_23352_cc" sketch:type="MSLayerGroup">
            <g id="Group" sketch:type="MSShapeGroup">
                <path d="M0.383392961,284.67996 C0.473250686,282.9332 0.652966137,281.216351 0.772776437,279.475573 C0.658956652,281.210369 0.473250686,282.9332 0.383392961,284.67996 L0.383392961,284.67996 Z" id="Shape" fill="#000000"></path>
                <path d="M294.85914,598.983051 C215.64656,597.762712 143.922123,565.878365 91.0378567,514.642074 C143.922123,565.878365 215.64656,597.768694 294.85914,598.983051 L294.85914,598.983051 Z" id="Shape" fill="#000000"></path>
                <path d="M8.09318579,368.979063 C7.34437141,365.832502 6.58956652,362.685942 5.9425909,359.50349 C6.58956652,362.685942 7.35036193,365.832502 8.09318579,368.979063 L8.09318579,368.979063 Z" id="Shape" fill="#000000"></path>
                <path d="M84.574091,508.19342 C74.779599,498.113659 65.6919877,487.351944 57.3831434,475.98006 C65.6859972,487.351944 74.779599,498.107677 84.574091,508.19342 L84.574091,508.19342 Z" id="Shape" fill="#000000"></path>
                <path d="M557.519261,148.091725 C559.795657,151.932203 561.994176,155.820538 564.102837,159.768694 C561.994176,155.820538 559.795657,151.938185 557.519261,148.091725 L557.519261,148.091725 Z" id="Shape" fill="#000000"></path>
                <path d="M491.767368,529.31007 C488.214993,532.283151 484.590731,535.1665 480.900574,537.978066 C484.590731,535.1665 488.220983,532.283151 491.767368,529.31007 L491.767368,529.31007 Z" id="Shape" fill="#000000"></path>
                <path d="M549.875364,135.858425 C552.397371,139.674975 554.82952,143.551346 557.171811,147.487537 C554.82952,143.545364 552.38539,139.674975 549.875364,135.858425 L549.875364,135.858425 Z" id="Shape" fill="#000000"></path>
                <path d="M480.672935,538.157527 C431.520759,575.467597 370.46543,597.966102 304.192362,598.983051 C370.47142,597.972084 431.520759,575.497507 480.672935,538.157527 L480.672935,538.157527 Z" id="Shape" fill="#000000"></path>
                <path d="M585.716615,388.474576 C584.871953,391.190429 583.925451,393.852443 583.008903,396.538385 C583.925451,393.852443 584.871953,391.190429 585.716615,388.474576 L585.716615,388.474576 Z" id="Shape" fill="#000000"></path>
                <path d="M57.3591813,475.95015 C54.6035444,472.169492 51.9317747,468.334995 49.3498627,464.422732 C51.9317747,468.334995 54.6035444,472.169492 57.3591813,475.95015 L57.3591813,475.95015 Z" id="Shape" fill="#000000"></path>
                <path d="M533.095931,112.851446 C536.031284,116.500499 538.888759,120.215354 541.650387,124.001994 C538.888759,120.215354 536.031284,116.500499 533.095931,112.851446 L533.095931,112.851446 Z" id="Shape" fill="#000000"></path>
                <path d="M16.6596223,398.368893 C15.4195857,394.815553 14.2035111,391.262213 13.0952658,387.655035 C14.2035111,391.262213 15.4195857,394.821535 16.6596223,398.368893 L16.6596223,398.368893 Z" id="Shape" fill="#000000"></path>
                <path d="M581.061985,402.287139 C580.037607,405.104686 578.9054,407.874377 577.791164,410.65005 C578.899409,407.868395 580.037607,405.098704 581.061985,402.287139 L581.061985,402.287139 Z" id="Shape" fill="#000000"></path>
                <path d="M575.77236,415.770688 C574.550295,418.66002 573.226392,421.501496 571.920459,424.354935 C573.226392,421.501496 574.550295,418.66002 575.77236,415.770688 L575.77236,415.770688 Z" id="Shape" fill="#000000"></path>
                <path d="M541.728264,124.115653 C544.465929,127.860419 547.113737,131.676969 549.683668,135.559322 C547.125718,131.676969 544.465929,127.866401 541.728264,124.115653 L541.728264,124.115653 Z" id="Shape" fill="#000000"></path>
                <path d="M12.0289542,383.898305 C11.0405192,380.530409 10.0580747,377.144566 9.18945004,373.722832 C10.0580747,377.144566 11.0405192,380.524427 12.0289542,383.898305 L12.0289542,383.898305 Z" id="Shape" fill="#000000"></path>
                <path d="M4.89425077,353.653041 C4.37307596,350.775673 3.81595807,347.904287 3.37865047,345.002991 C3.81595807,347.904287 4.37307596,350.769691 4.89425077,353.653041 L4.89425077,353.653041 Z" id="Shape" fill="#000000"></path>
                <path d="M556.2313,454.145563 C554.36226,457.244267 552.397371,460.271186 550.41451,463.298106 C552.397371,460.271186 554.36825,457.238285 556.2313,454.145563 L556.2313,454.145563 Z" id="Shape" fill="#000000"></path>
                <path d="M548.563441,466.187438 C546.46077,469.316052 544.268242,472.378863 542.057742,475.429711 C544.268242,472.378863 546.46077,469.322034 548.563441,466.187438 L548.563441,466.187438 Z" id="Shape" fill="#000000"></path>
                <path d="M569.847741,428.925224 C568.421999,431.898305 566.894417,434.811565 565.378817,437.730808 C566.894417,434.811565 568.421999,431.898305 569.847741,428.925224 L569.847741,428.925224 Z" id="Shape" fill="#000000"></path>
                <path d="M577.108245,187.621137 C578.593893,191.288136 580.043598,194.973081 581.397454,198.705882 C580.055579,194.967099 578.593893,191.288136 577.108245,187.621137 L577.108245,187.621137 Z" id="Shape" fill="#000000"></path>
                <path d="M594.14527,246.346959 C594.672435,249.224327 595.229553,252.089731 595.666861,254.997009 C595.229553,252.095713 594.672435,249.230309 594.14527,246.346959 L594.14527,246.346959 Z" id="Shape" fill="#000000"></path>
                <path d="M582.403861,201.684945 C583.637907,205.208375 584.842,208.749751 585.944255,212.333001 C584.842,208.749751 583.637907,205.214357 582.403861,201.684945 L582.403861,201.684945 Z" id="Shape" fill="#000000"></path>
                <path d="M587.034529,216.161515 C588.016973,219.517448 588.987437,222.867398 589.856061,226.265204 C588.993427,222.867398 588.016973,219.517448 587.034529,216.161515 L587.034529,216.161515 Z" id="Shape" fill="#000000"></path>
                <path d="M540.356436,477.822532 C538.014144,480.975075 535.581995,484.061815 533.125884,487.118644 C535.581995,484.055833 538.014144,480.975075 540.356436,477.822532 L540.356436,477.822532 Z" id="Shape" fill="#000000"></path>
                <path d="M531.616274,489.032901 C529.034362,492.185444 526.368583,495.266201 523.666861,498.311067 C526.368583,495.266201 529.034362,492.185444 531.616274,489.032901 L531.616274,489.032901 Z" id="Shape" fill="#000000"></path>
                <path d="M564.630002,160.815553 C566.648806,164.638086 568.595723,168.49651 570.452783,172.408774 C568.601714,168.49651 566.648806,164.638086 564.630002,160.815553 L564.630002,160.815553 Z" id="Shape" fill="#000000"></path>
                <path d="M0.814710042,321.044865 C0.682918712,319.10668 0.479241201,317.186441 0.383392961,315.236291 C0.479241201,317.186441 0.682918712,319.100698 0.814710042,321.044865 L0.814710042,321.044865 Z" id="Shape" fill="#000000"></path>
                <path d="M2.46210167,337.800598 C2.14460438,335.282154 1.77319245,332.775673 1.5156003,330.239282 C1.77319245,332.775673 2.14460438,335.282154 2.46210167,337.800598 L2.46210167,337.800598 Z" id="Shape" fill="#000000"></path>
                <path d="M502.436476,519.954138 C499.11773,523.010967 495.727099,525.978066 492.276562,528.879362 C495.721108,525.972084 499.11773,523.004985 502.436476,519.954138 L502.436476,519.954138 Z" id="Shape" fill="#000000"></path>
                <path d="M571.171645,174 C572.926866,177.75673 574.628172,181.549352 576.22764,185.395813 C574.628172,181.549352 572.926866,177.75673 571.171645,174 L571.171645,174 Z" id="Shape" fill="#000000"></path>
                <path d="M563.336051,441.714855 C561.68866,444.771685 559.939429,447.768694 558.184208,450.753739 C559.933439,447.768694 561.682669,444.771685 563.336051,441.714855 L563.336051,441.714855 Z" id="Shape" fill="#000000"></path>
                <path d="M598.230801,278.955135 C598.362593,280.89332 598.56627,282.819541 598.662118,284.763709 C598.56028,282.813559 598.362593,280.89332 598.230801,278.955135 L598.230801,278.955135 Z" id="Shape" fill="#000000"></path>
                <path d="M596.58341,262.199402 C596.900907,264.717846 597.266328,267.224327 597.52392,269.760718 C597.272319,267.224327 596.900907,264.717846 596.58341,262.199402 L596.58341,262.199402 Z" id="Shape" fill="#000000"></path>
                <path d="M17.9835261,197.706879 C18.9899326,194.937188 20.1101589,192.221336 21.2004326,189.487537 C20.1101589,192.221336 18.9959231,194.94317 17.9835261,197.706879 L17.9835261,197.706879 Z" id="Shape" fill="#000000"></path>
                <path d="M13.3348864,211.519442 C14.1615775,208.845464 15.0960978,206.219342 16.0006656,203.575274 C15.0960978,206.219342 14.1615775,208.845464 13.3348864,211.519442 L13.3348864,211.519442 Z" id="Shape" fill="#000000"></path>
                <path d="M41.5621932,451.962114 C39.2738165,448.097707 37.0633164,444.185444 34.9426741,440.21336 C37.0573259,444.191426 39.2678259,448.103689 41.5621932,451.962114 L41.5621932,451.962114 Z" id="Shape" fill="#000000"></path>
                <path d="M503.179299,519.248255 C504.826691,517.716849 506.450121,516.155533 508.06756,514.594217 L508.031617,514.558325 C506.420168,516.125623 504.826691,517.722832 503.179299,519.248255 L503.179299,519.248255 Z" id="Shape" fill="#000000"></path>
                <path d="M590.964307,231.074776 C591.70713,234.20339 592.461935,237.332004 593.09693,240.49651 C592.461935,237.326022 591.70713,234.20339 590.964307,231.074776 L590.964307,231.074776 Z" id="Shape" fill="#000000"></path>
                <path d="M23.2791414,184.22333 C24.4832349,181.363908 25.7891672,178.564307 27.0771279,175.752742 C25.7891672,178.564307 24.4832349,181.363908 23.2791414,184.22333 L23.2791414,184.22333 Z" id="Shape" fill="#000000"></path>
                <path d="M29.1977702,171.068794 C30.6115317,168.113659 32.1331226,165.218345 33.6427323,162.323031 C32.1331226,165.218345 30.6115317,168.113659 29.1977702,171.068794 L29.1977702,171.068794 Z" id="Shape" fill="#000000"></path>
                <path d="M595.624927,345.332004 C595.259506,347.694915 594.792246,350.00997 594.3789,352.354935 C594.798236,350.00997 595.265496,347.694915 595.624927,345.332004 L595.624927,345.332004 Z" id="Shape" fill="#000000"></path>
                <path d="M1.53357184,269.557328 C1.74923039,267.451645 2.06672768,265.381854 2.32431983,263.288136 C2.06672768,265.381854 1.74923039,267.451645 1.53357184,269.557328 L1.53357184,269.557328 Z" id="Shape" fill="#000000"></path>
                <path d="M597.511939,330.442672 C597.302271,332.572283 596.972793,334.671984 596.715201,336.795613 C596.972793,334.671984 597.296281,332.572283 597.511939,330.442672 L597.511939,330.442672 Z" id="Shape" fill="#000000"></path>
                <path d="M593.019053,359.976072 C592.51585,362.452642 591.892836,364.887338 591.335718,367.333998 C591.892836,364.89332 592.51585,362.452642 593.019053,359.976072 L593.019053,359.976072 Z" id="Shape" fill="#000000"></path>
                <path d="M3.42058408,254.667996 C3.78001498,252.334995 4.24128463,250.043868 4.65463017,247.728814 C4.24128463,250.037886 3.77402446,252.334995 3.42058408,254.667996 L3.42058408,254.667996 Z" id="Shape" fill="#000000"></path>
                <path d="M598.662118,315.32004 C598.56627,317.084746 598.380564,318.825523 598.266744,320.578265 C598.380564,318.819541 598.56627,317.078764 598.662118,315.32004 L598.662118,315.32004 Z" id="Shape" fill="#000000"></path>
                <path d="M9.33921291,225.625125 C9.99816956,223.040877 10.770946,220.504487 11.5017888,217.95015 C10.770946,220.504487 9.99816956,223.046859 9.33921291,225.625125 L9.33921291,225.625125 Z" id="Shape" fill="#000000"></path>
                <path d="M6.02645811,240.017946 C6.52966137,237.547358 7.14668442,235.124626 7.70979283,232.677966 C7.14668442,235.118644 6.52966137,237.547358 6.02645811,240.017946 L6.02645811,240.017946 Z" id="Shape" fill="#000000"></path>
                <path d="M514.423496,508.247258 C517.113237,505.471585 519.785007,502.671984 522.37291,499.800598 C519.779017,502.677966 517.113237,505.471585 514.423496,508.247258 L514.423496,508.247258 L514.423496,508.247258 Z" id="Shape" fill="#000000"></path>
                <path d="M27.903819,426.065803 C26.136617,422.279163 24.4233297,418.462612 22.8178717,414.598205 C24.4233297,418.468594 26.136617,422.279163 27.903819,426.065803 L27.903819,426.065803 Z" id="Shape" fill="#000000"></path>
                <path d="M589.706298,374.374875 C589.041351,376.983051 588.262584,379.531406 587.525751,382.109671 C588.262584,379.531406 589.041351,376.977069 589.706298,374.374875 L589.706298,374.374875 Z" id="Shape" fill="#000000"></path>
                <path d="M21.9552375,412.420738 C20.4576088,408.741775 19.0019136,405.038883 17.6480572,401.288136 C18.9959231,405.044865 20.4576088,408.741775 21.9552375,412.420738 L21.9552375,412.420738 Z" id="Shape" fill="#000000"></path>
                <path d="M34.4454614,439.250249 C32.4146768,435.403789 30.4497878,431.515454 28.5807472,427.57328 C30.4497878,431.515454 32.4146768,435.409771 34.4454614,439.250249 L34.4454614,439.250249 Z" id="Shape" fill="#000000"></path>
                <path d="M95.8602213,80.7577268 C94.2128297,82.2891326 92.5894001,83.8444666 90.9779516,85.4057827 L91.0138947,85.441675 C92.6253432,83.8743769 94.2128297,82.2831505 95.8602213,80.7577268 L95.8602213,80.7577268 Z" id="Shape" fill="#000000"></path>
                <path d="M295.032865,1.0109671 C228.68192,1.99202393 167.560696,24.4725823 118.366586,61.8484546 C167.560696,24.4965105 228.68192,1.99202393 295.032865,1.0109671 L295.032865,1.0109671 L295.032865,1.0109671 Z" id="Shape" fill="#000000"></path>
                <path d="M35.7154505,158.279163 C37.3448706,155.264207 39.0701389,152.309073 40.7954073,149.35992 C39.0701389,152.309073 37.3388801,155.264207 35.7154505,158.279163 L35.7154505,158.279163 Z" id="Shape" fill="#000000"></path>
                <path d="M49.2120809,464.21336 C46.678093,460.366899 44.2219819,456.4666 41.8617189,452.500499 C44.2279724,456.4666 46.678093,460.372881 49.2120809,464.21336 L49.2120809,464.21336 Z" id="Shape" fill="#000000"></path>
                <path d="M84.6220151,91.7527418 C81.9262834,94.5284148 79.2605042,97.328016 76.6726017,100.199402 C79.2605042,97.3220339 81.9322739,94.5284148 84.6220151,91.7527418 L84.6220151,91.7527418 L84.6220151,91.7527418 Z" id="Shape" fill="#000000"></path>
                <path d="M514.537316,91.8723829 C517.760213,95.1984048 520.911224,98.5902293 523.984358,102.059821 C520.917214,98.5902293 517.760213,95.1984048 514.537316,91.8723829 L514.537316,91.8723829 Z" id="Shape" fill="#000000"></path>
                <path d="M58.6950661,122.171486 C61.031367,119.030907 63.4455446,115.956132 65.9016557,112.905284 C63.4515351,115.956132 61.031367,119.030907 58.6950661,122.171486 L58.6950661,122.171486 Z" id="Shape" fill="#000000"></path>
                <path d="M524.032282,102.113659 C527.129378,105.613161 530.148598,109.190429 533.08395,112.8335 C530.148598,109.190429 527.129378,105.619143 524.032282,102.113659 L524.032282,102.113659 Z" id="Shape" fill="#000000"></path>
                <path d="M67.429237,110.967099 C70.011149,107.814556 72.6709377,104.733799 75.3786505,101.688933 C72.6769282,104.733799 70.011149,107.814556 67.429237,110.967099 L67.429237,110.967099 Z" id="Shape" fill="#000000"></path>
                <path d="M42.8202013,145.842473 C44.677261,142.773679 46.6181879,139.770688 48.5770863,136.773679 C46.6181879,139.770688 44.677261,142.773679 42.8202013,145.842473 L42.8202013,145.842473 Z" id="Shape" fill="#000000"></path>
                <path d="M50.4880606,133.80658 C52.5727598,130.68993 54.7533073,127.645065 56.9578168,124.618146 C54.7533073,127.651047 52.5727598,130.695912 50.4880606,133.80658 L50.4880606,133.80658 Z" id="Shape" fill="#000000"></path>
                <path d="M96.6090357,80.0398804 C99.9457526,76.9710867 103.360346,73.9800598 106.834845,71.0667996 C103.360346,73.9860419 99.9457526,76.9710867 96.6090357,80.0398804 L96.6090357,80.0398804 Z" id="Shape" fill="#000000"></path>
                <path d="M107.266162,70.6959123 C110.842499,67.7048853 114.490723,64.7976072 118.204842,61.9740778 C114.490723,64.7976072 110.836509,67.7048853 107.266162,70.6959123 L107.266162,70.6959123 Z" id="Shape" fill="#000000"></path>
                <path d="M85.3828105,90.9571286 C85.1312089,91.2143569 84.8796073,91.4895314 84.6280057,91.7467597 L84.6339962,91.7527418 C84.8855978,91.4955135 85.1252184,91.220339 85.3828105,90.9571286 L85.3828105,90.9571286 Z" id="Shape" fill="#000000"></path>
                <path d="M513.668691,509.036889 C513.920293,508.773679 514.165904,508.504487 514.423496,508.247258 L514.417506,508.241276 C514.165904,508.504487 513.920293,508.773679 513.668691,509.036889 L513.668691,509.036889 Z" id="Shape" fill="#000000"></path>
                <path d="M304.018637,581.042871 L304.018637,593.006979 C381.673683,591.840479 451.954406,560.518445 503.808304,510.334995 L495.331725,501.870389 C445.646393,549.900299 378.354938,579.876371 304.018637,581.042871 L304.018637,581.042871 Z" id="Shape" fill="#000000"></path>
                <path d="M501.705633,495.547358 L510.188202,504.017946 C560.484566,452.261216 591.779017,382.037886 592.947167,304.48654 L580.966137,304.48654 C579.797987,378.735793 549.845411,445.962114 501.705633,495.547358 L501.705633,495.547358 Z" id="Shape" fill="#000000"></path>
                <path d="M501.711623,104.440678 C549.83343,154.043868 579.791996,221.276171 580.960146,295.51346 L592.941176,295.51346 C591.773026,217.962114 560.472585,147.744766 510.188202,95.9760718 L501.711623,104.440678 L501.711623,104.440678 Z" id="Shape" fill="#000000"></path>
                <path d="M97.3398785,104.44666 L88.8573093,95.9760718 C38.5609452,147.732802 7.27248523,217.956132 6.09834429,295.51346 L18.0793743,295.51346 C19.2475248,221.264207 49.2000998,154.037886 97.3398785,104.44666 L97.3398785,104.44666 Z" id="Shape" fill="#000000"></path>
                <path d="M18.0793743,304.48654 L6.09834429,304.48654 C7.27248523,382.031904 38.5669357,452.249252 88.8573093,504.017946 L97.333888,495.559322 C49.2060904,445.95015 19.2475248,378.729811 18.0793743,304.48654 L18.0793743,304.48654 Z" id="Shape" fill="#000000"></path>
                <path d="M295.032865,18.9571286 L295.032865,6.99302094 C217.377818,8.15952144 147.091106,39.4755733 95.2431983,89.665005 L103.719777,98.1296112 C153.393128,50.0997009 220.690573,20.1236291 295.032865,18.9571286 L295.032865,18.9571286 Z" id="Shape" fill="#000000"></path>
                <path d="M103.689824,501.906281 L95.2132457,510.364905 C147.055163,560.590229 217.371828,591.840479 295.032865,593.006979 L295.032865,581.042871 C220.684583,579.876371 153.363175,549.96012 103.689824,501.906281 L103.689824,501.906281 Z" id="Shape" fill="#000000"></path>
                <path d="M24.0698893,304.48654 C25.2380398,377.078764 54.5256677,442.809571 101.569182,491.324028 L288.676928,304.48654 L24.0698893,304.48654 L24.0698893,304.48654 Z M77.8766952,347.856431 C71.2571761,347.856431 65.8956652,342.502493 65.8956652,335.892323 C65.8956652,329.282154 71.2571761,323.928215 77.8766952,323.928215 C84.4962143,323.928215 89.8577253,329.282154 89.8577253,335.892323 C89.8577253,342.502493 84.4902238,347.856431 77.8766952,347.856431 L77.8766952,347.856431 Z M119.8103,389.730808 C113.190781,389.730808 107.82927,384.376869 107.82927,377.7667 C107.82927,371.15653 113.190781,365.802592 119.8103,365.802592 C126.429819,365.802592 131.79133,371.15653 131.79133,377.7667 C131.79133,384.376869 126.423829,389.730808 119.8103,389.730808 L119.8103,389.730808 Z M173.724936,347.856431 C167.105416,347.856431 161.743905,342.502493 161.743905,335.892323 C161.743905,329.282154 167.105416,323.928215 173.724936,323.928215 C180.344455,323.928215 185.705966,329.282154 185.705966,335.892323 C185.705966,342.502493 180.338464,347.856431 173.724936,347.856431 L173.724936,347.856431 Z" id="Shape"></path>
                <path d="M101.581163,108.681954 C54.5256677,157.184447 25.2380398,222.915254 24.0698893,295.51346 L288.676928,295.51346 L101.581163,108.681954 L101.581163,108.681954 Z M77.8766952,246.161515 C71.2571761,246.161515 65.8956652,240.807577 65.8956652,234.197408 C65.8956652,227.587238 71.2571761,222.2333 77.8766952,222.2333 C84.4962143,222.2333 89.8577253,227.587238 89.8577253,234.197408 C89.8577253,240.807577 84.4902238,246.161515 77.8766952,246.161515 L77.8766952,246.161515 Z" id="Shape"></path>
                <path d="M295.032865,289.1665 L295.032865,24.9391825 C222.349946,26.105683 156.550129,55.4117647 107.955071,102.358923 L295.032865,289.1665 L295.032865,289.1665 Z M245.611116,144.4666 C252.230635,144.4666 257.592146,149.820538 257.592146,156.430708 C257.592146,163.040877 252.230635,168.394816 245.611116,168.394816 C238.991597,168.394816 233.630086,163.040877 233.630086,156.430708 C233.630086,149.820538 238.991597,144.4666 245.611116,144.4666 L245.611116,144.4666 Z M191.696481,78.664008 C198.316,78.664008 203.677511,84.0179462 203.677511,90.6281157 C203.677511,97.2382851 198.316,102.592223 191.696481,102.592223 C185.076961,102.592223 179.715451,97.2382851 179.715451,90.6281157 C179.715451,84.0179462 185.076961,78.664008 191.696481,78.664008 L191.696481,78.664008 Z" id="Shape"></path>
                <path d="M497.464348,491.318046 C544.519844,442.815553 573.801481,377.078764 574.969631,304.48654 L310.368583,304.48654 L497.464348,491.318046 L497.464348,491.318046 Z M503.203262,383.748754 C509.822781,383.748754 515.184292,389.102692 515.184292,395.712861 C515.184292,402.323031 509.822781,407.676969 503.203262,407.676969 C496.583742,407.676969 491.222231,402.323031 491.222231,395.712861 C491.222231,389.102692 496.577752,383.748754 503.203262,383.748754 L503.203262,383.748754 Z M473.250686,329.910269 C479.870206,329.910269 485.231716,335.264207 485.231716,341.874377 C485.231716,348.484546 479.870206,353.838485 473.250686,353.838485 C466.631167,353.838485 461.269656,348.484546 461.269656,341.874377 C461.269656,335.264207 466.625177,329.910269 473.250686,329.910269 L473.250686,329.910269 Z M413.345536,359.820538 C419.965055,359.820538 425.326566,365.174477 425.326566,371.784646 C425.326566,378.394816 419.965055,383.748754 413.345536,383.748754 C406.726017,383.748754 401.364506,378.394816 401.364506,371.784646 C401.364506,365.174477 406.720027,359.820538 413.345536,359.820538 L413.345536,359.820538 Z" id="Shape"></path>
                <path d="M304.018637,575.060818 C376.701556,573.900299 442.501373,544.588235 491.096431,497.641077 L304.018637,310.8335 L304.018637,575.060818 L304.018637,575.060818 Z M377.402446,485.443669 C384.021965,485.443669 389.383476,490.797607 389.383476,497.407777 C389.383476,504.017946 384.021965,509.371884 377.402446,509.371884 C370.782927,509.371884 365.421416,504.017946 365.421416,497.407777 C365.421416,490.797607 370.776937,485.443669 377.402446,485.443669 L377.402446,485.443669 Z M335.468841,407.676969 C342.08836,407.676969 347.449871,413.030907 347.449871,419.641077 C347.449871,426.251246 342.08836,431.605184 335.468841,431.605184 C328.849322,431.605184 323.487811,426.251246 323.487811,419.641077 C323.487811,413.030907 328.843331,407.676969 335.468841,407.676969 L335.468841,407.676969 Z" id="Shape"></path>
                <path d="M497.470339,108.66999 L310.368583,295.51346 L574.975622,295.51346 C573.807472,222.927218 544.513853,157.190429 497.470339,108.66999 L497.470339,108.66999 Z M455.279141,252.143569 C448.659622,252.143569 443.298111,246.789631 443.298111,240.179462 C443.298111,233.569292 448.659622,228.215354 455.279141,228.215354 C461.89866,228.215354 467.260171,233.569292 467.260171,240.179462 C467.260171,246.789631 461.89866,252.143569 455.279141,252.143569 L455.279141,252.143569 Z M503.203262,198.305085 C496.583742,198.305085 491.222231,192.951147 491.222231,186.340977 C491.222231,179.730808 496.583742,174.376869 503.203262,174.376869 C509.822781,174.376869 515.184292,179.730808 515.184292,186.340977 C515.184292,192.951147 509.822781,198.305085 503.203262,198.305085 L503.203262,198.305085 Z" id="Shape"></path>
                <path d="M107.925119,497.670987 C156.514186,544.648056 222.343955,573.894317 295.032865,575.0668 L295.032865,310.8335 L107.925119,497.670987 L107.925119,497.670987 Z M179.715451,491.425723 C173.095931,491.425723 167.734421,486.071785 167.734421,479.461615 C167.734421,472.851446 173.095931,467.497507 179.715451,467.497507 C186.33497,467.497507 191.696481,472.851446 191.696481,479.461615 C191.696481,486.071785 186.328979,491.425723 179.715451,491.425723 L179.715451,491.425723 Z M251.601631,545.264207 C244.982112,545.264207 239.620601,539.910269 239.620601,533.3001 C239.620601,526.68993 244.982112,521.335992 251.601631,521.335992 C258.22115,521.335992 263.582661,526.68993 263.582661,533.3001 C263.582661,539.910269 258.215159,545.264207 251.601631,545.264207 L251.601631,545.264207 Z" id="Shape"></path>
                <path d="M533.08395,112.8335 C533.089941,112.839482 533.095931,112.845464 533.095931,112.845464 C533.095931,112.845464 533.089941,112.839482 533.08395,112.8335 L533.08395,112.8335 Z" id="Shape" fill="#000000"></path>
                <path d="M549.683668,135.559322 C549.749563,135.661017 549.809468,135.75673 549.869373,135.858425 C549.809468,135.75673 549.749563,135.655035 549.683668,135.559322 L549.683668,135.559322 Z" id="Shape" fill="#000000"></path>
                <path d="M523.984358,102.059821 C523.996339,102.077767 524.014311,102.095713 524.032282,102.113659 C524.014311,102.095713 523.996339,102.077767 523.984358,102.059821 L523.984358,102.059821 Z" id="Shape" fill="#000000"></path>
                <path d="M541.644396,124.001994 C541.674349,124.037886 541.698311,124.079761 541.728264,124.121635 C541.698311,124.079761 541.674349,124.037886 541.644396,124.001994 L541.644396,124.001994 Z" id="Shape" fill="#000000"></path>
                <path d="M597.529911,269.754736 C597.835427,272.799601 598.015143,275.880359 598.230801,278.955135 C598.015143,275.886341 597.829437,272.805583 597.529911,269.754736 L597.529911,269.754736 Z" id="Shape" fill="#000000"></path>
                <path d="M595.666861,255.002991 C596.032282,257.383848 596.283884,259.800598 596.58341,262.199402 C596.283884,259.800598 596.032282,257.383848 595.666861,255.002991 L595.666861,255.002991 Z" id="Shape" fill="#000000"></path>
                <path d="M581.397454,198.705882 C581.750894,199.692921 582.056411,200.697906 582.403861,201.690927 C582.062401,200.697906 581.750894,199.686939 581.397454,198.705882 L581.397454,198.705882 Z" id="Shape" fill="#000000"></path>
                <path d="M585.944255,212.338983 C586.333638,213.601196 586.663117,214.89332 587.034529,216.167498 C586.663117,214.89332 586.333638,213.601196 585.944255,212.338983 L585.944255,212.338983 Z" id="Shape" fill="#000000"></path>
                <path d="M576.22764,185.395813 C576.539146,186.131605 576.80872,186.885344 577.108245,187.627119 C576.80872,186.885344 576.539146,186.131605 576.22764,185.395813 L576.22764,185.395813 Z" id="Shape" fill="#000000"></path>
                <path d="M593.09693,240.49651 C593.486313,242.434696 593.79183,244.402792 594.14527,246.352941 C593.79782,244.402792 593.492304,242.428714 593.09693,240.49651 L593.09693,240.49651 Z" id="Shape" fill="#000000"></path>
                <path d="M570.452783,172.408774 C570.704385,172.935194 570.926034,173.467597 571.171645,174 C570.926034,173.473579 570.704385,172.935194 570.452783,172.408774 L570.452783,172.408774 Z" id="Shape" fill="#000000"></path>
                <path d="M598.937682,295.51346 C598.883767,291.918245 598.841834,288.323031 598.662118,284.763709 C598.841834,288.323031 598.883767,291.918245 598.937682,295.51346 L598.937682,295.51346 L598.937682,295.51346 Z" id="Shape" fill="#000000"></path>
                <path d="M589.850071,226.265204 C590.251435,227.856431 590.580914,229.471585 590.964307,231.068794 C590.580914,229.471585 590.257426,227.856431 589.850071,226.265204 L589.850071,226.265204 Z" id="Shape" fill="#000000"></path>
                <path d="M564.102837,159.774676 C564.282553,160.121635 564.456278,160.468594 564.635993,160.815553 C564.450287,160.468594 564.282553,160.115653 564.102837,159.774676 L564.102837,159.774676 Z" id="Shape" fill="#000000"></path>
                <path d="M557.165821,147.481555 C557.291622,147.684945 557.399451,147.888335 557.519261,148.091725 C557.399451,147.894317 557.291622,147.684945 557.165821,147.481555 L557.165821,147.481555 Z" id="Shape" fill="#000000"></path>
                <path d="M304.018637,598.989033 C304.078542,598.989033 304.138447,598.983051 304.192362,598.983051 C304.132457,598.983051 304.072552,598.983051 304.018637,598.989033 L304.018637,598.989033 L304.018637,598.989033 Z" id="Shape" fill="#000000"></path>
                <path d="M533.125884,487.112662 C532.61669,487.740778 532.131459,488.398804 531.616274,489.026919 C532.131459,488.398804 532.61669,487.74676 533.125884,487.112662 L533.125884,487.112662 Z" id="Shape" fill="#000000"></path>
                <path d="M598.662118,315.32004 C598.841834,311.730808 598.883767,308.111665 598.937682,304.48654 L598.937682,304.48654 C598.877777,308.105683 598.841834,311.730808 598.662118,315.32004 L598.662118,315.32004 Z" id="Shape" fill="#000000"></path>
                <path d="M583.008903,396.538385 C582.361927,398.452642 581.756885,400.390828 581.061985,402.287139 C581.756885,400.384845 582.355936,398.452642 583.008903,396.538385 L583.008903,396.538385 Z" id="Shape" fill="#000000"></path>
                <path d="M542.057742,475.429711 C541.476662,476.219342 540.931525,477.032901 540.356436,477.81655 C540.931525,477.032901 541.476662,476.219342 542.057742,475.429711 L542.057742,475.429711 Z" id="Shape" fill="#000000"></path>
                <path d="M596.715201,336.789631 C596.361761,339.643071 596.056244,342.502493 595.624927,345.332004 C596.056244,342.502493 596.361761,339.643071 596.715201,336.789631 L596.715201,336.789631 Z" id="Shape" fill="#000000"></path>
                <path d="M503.179299,519.248255 C502.927698,519.475573 502.688077,519.720837 502.436476,519.948156 C502.688077,519.720837 502.927698,519.475573 503.179299,519.248255 L503.179299,519.248255 Z" id="Shape" fill="#000000"></path>
                <path d="M523.666861,498.305085 C523.229553,498.801595 522.810217,499.31007 522.37291,499.800598 C522.810217,499.31007 523.223563,498.801595 523.666861,498.305085 L523.666861,498.305085 Z" id="Shape" fill="#000000"></path>
                <path d="M492.270572,528.879362 C492.102837,529.022931 491.935103,529.172483 491.767368,529.31007 C491.941093,529.172483 492.102837,529.016949 492.270572,528.879362 L492.270572,528.879362 Z" id="Shape" fill="#000000"></path>
                <path d="M514.537316,91.8723829 C514.495382,91.8364905 514.459439,91.7886341 514.417506,91.7467597 L514.417506,91.7467597 C514.453449,91.7886341 514.495382,91.8364905 514.537316,91.8723829 L514.537316,91.8723829 Z" id="Shape" fill="#000000"></path>
                <path d="M565.378817,437.724826 C564.689908,439.052841 564.036942,440.398804 563.330061,441.714855 C564.042932,440.404786 564.689908,439.052841 565.378817,437.724826 L565.378817,437.724826 Z" id="Shape" fill="#000000"></path>
                <path d="M550.41451,463.298106 C549.791497,464.255234 549.198436,465.236291 548.557451,466.187438 C549.198436,465.236291 549.791497,464.255234 550.41451,463.298106 L550.41451,463.298106 Z" id="Shape" fill="#000000"></path>
                <path d="M571.920459,424.348953 C571.22556,425.868395 570.566603,427.417747 569.847741,428.925224 C570.572593,427.417747 571.22556,425.868395 571.920459,424.348953 L571.920459,424.348953 Z" id="Shape" fill="#000000"></path>
                <path d="M577.791164,410.65005 C577.114236,412.348953 576.479241,414.077767 575.77236,415.764706 C576.479241,414.077767 577.108245,412.348953 577.791164,410.65005 L577.791164,410.65005 Z" id="Shape" fill="#000000"></path>
                <path d="M558.178218,450.753739 C557.525252,451.878365 556.902238,453.026919 556.2313,454.139581 C556.902238,453.026919 557.525252,451.884347 558.178218,450.753739 L558.178218,450.753739 Z" id="Shape" fill="#000000"></path>
                <path d="M587.525751,382.109671 C586.920709,384.227318 586.369581,386.374875 585.716615,388.474576 C586.363591,386.368893 586.920709,384.227318 587.525751,382.109671 L587.525751,382.109671 Z" id="Shape" fill="#000000"></path>
                <path d="M594.3789,352.354935 C593.929611,354.897308 593.528247,357.463609 593.013063,359.976072 C593.534237,357.457627 593.929611,354.897308 594.3789,352.354935 L594.3789,352.354935 Z" id="Shape" fill="#000000"></path>
                <path d="M480.900574,537.978066 C480.822697,538.037886 480.750811,538.103689 480.672935,538.157527 C480.744821,538.103689 480.822697,538.037886 480.900574,537.978066 L480.900574,537.978066 Z" id="Shape" fill="#000000"></path>
                <path d="M598.266744,320.572283 C598.045095,323.868395 597.847408,327.176471 597.511939,330.43669 C597.841418,327.176471 598.039105,323.868395 598.266744,320.572283 L598.266744,320.572283 Z" id="Shape" fill="#000000"></path>
                <path d="M591.329728,367.33998 C590.784591,369.690927 590.299359,372.047856 589.706298,374.374875 C590.30535,372.047856 590.790582,369.684945 591.329728,367.33998 L591.329728,367.33998 Z" id="Shape" fill="#000000"></path>
                <path d="M503.802313,510.334995 C451.954406,560.524427 381.667693,591.840479 304.012647,593.006979 L304.012647,598.989033 C304.072552,598.983051 304.132457,598.983051 304.186372,598.983051 C370.453449,597.966102 431.514768,575.467597 480.666944,538.157527 C480.744821,538.097707 480.816707,538.031904 480.894584,537.978066 C484.584741,535.1665 488.214993,532.283151 491.761378,529.31007 C491.929112,529.172483 492.096847,529.022931 492.264581,528.879362 C495.715118,525.978066 499.11174,523.010967 502.424495,519.954138 C502.676096,519.72682 502.915717,519.481555 503.167318,519.254237 C504.81471,517.722832 506.408187,516.131605 508.025626,514.564307 L503.802313,510.334995 L503.802313,510.334995 Z" id="Shape" fill="#000000"></path>
                <path d="M510.194193,95.9760718 C560.484566,147.744766 591.779017,217.962114 592.947167,295.51346 L598.937682,295.51346 C598.883767,291.918245 598.841834,288.323031 598.662118,284.763709 C598.56028,282.813559 598.362593,280.89332 598.230801,278.955135 C598.015143,275.886341 597.835427,272.805583 597.529911,269.754736 C597.272319,267.218345 596.906897,264.717846 596.5894,262.19342 C596.283884,259.794616 596.032282,257.377866 595.672851,254.997009 C595.235544,252.089731 594.678426,249.224327 594.151261,246.346959 C593.79782,244.39681 593.498294,242.428714 593.10292,240.490528 C592.467926,237.326022 591.713121,234.197408 590.970297,231.068794 C590.592895,229.465603 590.263416,227.850449 589.856061,226.265204 C588.987437,222.867398 588.016973,219.517448 587.034529,216.161515 C586.663117,214.89332 586.339629,213.601196 585.944255,212.333001 C584.842,208.743769 583.637907,205.208375 582.403861,201.684945 C582.056411,200.691924 581.750894,199.686939 581.397454,198.6999 C580.043598,194.967099 578.593893,191.282154 577.108245,187.615155 C576.802729,186.87338 576.533156,186.119641 576.22764,185.383848 C574.628172,181.537388 572.926866,177.750748 571.171645,173.988036 C570.926034,173.461615 570.704385,172.92323 570.452783,172.39681 C568.595723,168.484546 566.648806,164.62014 564.630002,160.803589 C564.450287,160.45663 564.276562,160.103689 564.096847,159.762712 C561.988185,155.814556 559.789666,151.920239 557.513271,148.085743 C557.39346,147.882353 557.285631,147.678963 557.15983,147.475573 C554.817539,143.539382 552.38539,139.663011 549.863383,135.846461 C549.797487,135.744766 549.737582,135.649053 549.677677,135.547358 C547.107746,131.670987 544.459938,127.854437 541.722273,124.103689 C541.69232,124.067797 541.668358,124.025922 541.638406,123.984048 C538.876778,120.20339 536.019303,116.482552 533.08395,112.8335 C533.08395,112.8335 533.07796,112.827517 533.071969,112.821535 C530.136617,109.178465 527.117397,105.601196 524.020301,102.101695 C524.00233,102.083749 523.984358,102.065803 523.972377,102.047856 C520.899243,98.5782652 517.748232,95.1864407 514.525335,91.8604187 C514.483401,91.8245264 514.441468,91.77667 514.405525,91.7407777 L510.194193,95.9760718 L510.194193,95.9760718 Z" id="Shape" fill="#000000"></path>
                <path d="M592.947167,304.48654 C591.779017,382.043868 560.484566,452.261216 510.188202,504.017946 L514.417506,508.241276 C517.113237,505.465603 519.785007,502.671984 522.37291,499.800598 C522.810217,499.31007 523.229553,498.801595 523.666861,498.305085 C526.368583,495.260219 529.034362,492.185444 531.616274,489.026919 C532.131459,488.398804 532.61669,487.740778 533.125884,487.112662 C535.581995,484.055833 538.014144,480.975075 540.356436,477.81655 C540.937516,477.026919 541.482652,476.21336 542.057742,475.429711 C544.268242,472.378863 546.46077,469.322034 548.563441,466.187438 C549.198436,465.236291 549.791497,464.255234 550.420501,463.298106 C552.403361,460.271186 554.36825,457.238285 556.237291,454.145563 C556.908229,453.026919 557.531242,451.884347 558.184208,450.759721 C559.939429,447.774676 561.68866,444.777667 563.336051,441.720837 C564.042932,440.404786 564.695898,439.058824 565.384807,437.730808 C566.900408,434.817547 568.427989,431.898305 569.853732,428.925224 C570.572593,427.417747 571.22556,425.868395 571.92645,424.348953 C573.232382,421.495513 574.550295,418.66002 575.778351,415.764706 C576.485232,414.077767 577.120226,412.348953 577.797155,410.65005 C578.91139,407.868395 580.043598,405.098704 581.067976,402.287139 C581.762875,400.390828 582.367917,398.452642 583.014893,396.538385 C583.931442,393.858425 584.883934,391.190429 585.722606,388.474576 C586.369581,386.368893 586.926699,384.227318 587.531741,382.109671 C588.268575,379.531406 589.047342,376.983051 589.712289,374.374875 C590.31134,372.047856 590.796572,369.690927 591.335718,367.33998 C591.898827,364.89332 592.51585,362.458624 593.019053,359.982054 C593.534237,357.463609 593.929611,354.897308 594.384891,352.360917 C594.798236,350.015952 595.265496,347.700897 595.630918,345.337986 C596.056244,342.508475 596.367751,339.649053 596.721191,336.795613 C596.978784,334.677966 597.308262,332.578265 597.51793,330.442672 C597.853399,327.176471 598.051086,323.868395 598.272735,320.578265 C598.392545,318.825523 598.578251,317.084746 598.668109,315.32004 C598.847824,311.730808 598.883767,308.111665 598.943673,304.48654 L592.947167,304.48654 L592.947167,304.48654 Z" id="Shape" fill="#000000"></path>
                <path d="M513.668691,509.036889 C513.321241,509.395813 512.991763,509.760718 512.638323,510.113659 C512.985773,509.760718 513.321241,509.395813 513.668691,509.036889 L513.668691,509.036889 Z" id="Shape" fill="#000000"></path>
                <path d="M90.9779516,514.594217 L91.0378567,514.648056 L90.9779516,514.594217 L90.9779516,514.594217 Z" id="Shape" fill="#000000"></path>
                <path d="M295.032865,598.989033 L295.032865,598.989033 C294.972959,598.983051 294.919045,598.983051 294.85914,598.983051 C294.913054,598.983051 294.972959,598.989033 295.032865,598.989033 L295.032865,598.989033 Z" id="Shape" fill="#000000"></path>
                <path d="M95.2132457,510.364905 L90.9779516,514.594217 C90.9959231,514.612164 91.0138947,514.63011 91.0378567,514.648056 C143.922123,565.878365 215.64656,597.768694 294.85914,598.989033 C294.919045,598.989033 294.972959,598.989033 295.032865,598.995015 L295.032865,593.012961 C217.371828,591.840479 147.055163,560.590229 95.2132457,510.364905 L95.2132457,510.364905 Z" id="Shape" fill="#000000"></path>
                <path d="M0.10782927,304.48654 C0.161743905,308.081755 0.203677511,311.670987 0.383392961,315.236291 C0.203677511,311.670987 0.161743905,308.081755 0.10782927,304.48654 L0.10782927,304.48654 L0.10782927,304.48654 Z" id="Shape" fill="#000000"></path>
                <path d="M48.5770863,136.773679 C49.2180714,135.78664 49.8291039,134.781655 50.4820701,133.80658 C49.8291039,134.781655 49.2240619,135.792622 48.5770863,136.773679 L48.5770863,136.773679 Z" id="Shape" fill="#000000"></path>
                <path d="M84.574091,508.19342 L84.6220151,508.247258 L84.574091,508.19342 Z" id="Shape" fill="#000000"></path>
                <path d="M33.6427323,162.323031 C34.3436226,160.977069 34.9965887,159.607178 35.7154505,158.279163 C34.9965887,159.607178 34.3376321,160.977069 33.6427323,162.323031 L33.6427323,162.323031 Z" id="Shape" fill="#000000"></path>
                <path d="M40.7954073,149.353938 C41.478326,148.187438 42.1253016,146.997009 42.8202013,145.842473 C42.1253016,146.997009 41.478326,148.19342 40.7954073,149.353938 L40.7954073,149.353938 Z" id="Shape" fill="#000000"></path>
                <path d="M75.3786505,101.688933 C75.8159581,101.192423 76.2352941,100.68993 76.6726017,100.19342 C76.2352941,100.68993 75.8159581,101.198405 75.3786505,101.688933 L75.3786505,101.688933 Z" id="Shape" fill="#000000"></path>
                <path d="M56.9518263,124.624128 C57.5388967,123.810568 58.0960146,122.979063 58.6950661,122.177468 C58.1020052,122.979063 57.5388967,123.810568 56.9518263,124.624128 L56.9518263,124.624128 Z" id="Shape" fill="#000000"></path>
                <path d="M118.204842,61.9740778 C118.258757,61.9322034 118.312672,61.890329 118.360596,61.8484546 C118.312672,61.890329 118.258757,61.9322034 118.204842,61.9740778 L118.204842,61.9740778 Z" id="Shape" fill="#000000"></path>
                <path d="M0.383392961,284.67996 C0.203677511,288.269192 0.161743905,291.894317 0.10782927,295.51346 L0.10782927,295.51346 C0.161743905,291.894317 0.203677511,288.269192 0.383392961,284.67996 L0.383392961,284.67996 Z" id="Shape" fill="#000000"></path>
                <path d="M106.834845,71.0667996 C106.978617,70.9471585 107.116399,70.8155533 107.260171,70.6959123 C107.116399,70.8155533 106.978617,70.9411765 106.834845,71.0667996 L106.834845,71.0667996 Z" id="Shape" fill="#000000"></path>
                <path d="M15.9946751,203.575274 C16.6596223,201.619143 17.2766453,199.645065 17.9835261,197.706879 C17.2826358,199.645065 16.6656128,201.625125 15.9946751,203.575274 L15.9946751,203.575274 Z" id="Shape" fill="#000000"></path>
                <path d="M95.8602213,80.7577268 C96.1118229,80.5244267 96.3574341,80.2791625 96.6090357,80.0458624 C96.3574341,80.2791625 96.1118229,80.5244267 95.8602213,80.7577268 L95.8602213,80.7577268 Z" id="Shape" fill="#000000"></path>
                <path d="M21.2004326,189.487537 C21.9013229,187.734796 22.5482985,185.958126 23.2791414,184.217348 C22.5482985,185.958126 21.9013229,187.734796 21.2004326,189.487537 L21.2004326,189.487537 Z" id="Shape" fill="#000000"></path>
                <path d="M65.9016557,112.911266 C66.41684,112.271186 66.9080622,111.607178 67.429237,110.967099 C66.9080622,111.607178 66.41684,112.265204 65.9016557,112.911266 L65.9016557,112.911266 Z" id="Shape" fill="#000000"></path>
                <path d="M27.0771279,175.74676 C27.7899992,174.191426 28.4549463,172.606181 29.1977702,171.062812 C28.4549463,172.612164 27.7899992,174.191426 27.0771279,175.74676 L27.0771279,175.74676 Z" id="Shape" fill="#000000"></path>
                <path d="M5.9425909,359.50349 C5.55320742,357.565304 5.24769116,355.60319 4.89425077,353.647059 C5.24769116,355.597208 5.55320742,357.565304 5.9425909,359.50349 L5.9425909,359.50349 Z" id="Shape" fill="#000000"></path>
                <path d="M28.5807472,427.57328 C28.3411265,427.07677 28.1314585,426.568295 27.8978284,426.065803 C28.137449,426.568295 28.3471171,427.07677 28.5807472,427.57328 L28.5807472,427.57328 Z" id="Shape" fill="#000000"></path>
                <path d="M3.37865047,344.997009 C3.01921957,342.616152 2.76761794,340.199402 2.46210167,337.800598 C2.76761794,340.205384 3.01921957,342.616152 3.37865047,344.997009 L3.37865047,344.997009 Z" id="Shape" fill="#000000"></path>
                <path d="M9.18945004,373.722832 C8.79407605,372.155533 8.46459772,370.558325 8.09318579,368.979063 C8.47058824,370.558325 8.78808553,372.155533 9.18945004,373.722832 L9.18945004,373.722832 Z" id="Shape" fill="#000000"></path>
                <path d="M2.32431983,263.288136 C2.67776021,260.410768 2.98926699,257.521436 3.42058408,254.667996 C2.98926699,257.521436 2.67776021,260.410768 2.32431983,263.288136 L2.32431983,263.288136 Z" id="Shape" fill="#000000"></path>
                <path d="M57.3831434,475.98006 C57.3771528,475.968096 57.3711623,475.956132 57.3651718,475.95015 C57.3711623,475.956132 57.3771528,475.968096 57.3831434,475.98006 L57.3831434,475.98006 Z" id="Shape" fill="#000000"></path>
                <path d="M49.3498627,464.422732 C49.3079291,464.350947 49.260005,464.285145 49.2180714,464.21336 C49.260005,464.285145 49.3019386,464.356929 49.3498627,464.422732 L49.3498627,464.422732 Z" id="Shape" fill="#000000"></path>
                <path d="M13.0952658,387.655035 C12.7178634,386.410768 12.3943756,385.148554 12.0289542,383.898305 C12.3943756,385.148554 12.7178634,386.41675 13.0952658,387.655035 L13.0952658,387.655035 Z" id="Shape" fill="#000000"></path>
                <path d="M17.6480572,401.288136 C17.3006074,400.325025 16.9950911,399.337986 16.6596223,398.374875 C16.9950911,399.332004 17.3006074,400.325025 17.6480572,401.288136 L17.6480572,401.288136 Z" id="Shape" fill="#000000"></path>
                <path d="M0.778766952,279.475573 C1.00640652,276.161515 1.20409352,272.841476 1.53357184,269.557328 C1.20409352,272.841476 1.00041601,276.161515 0.778766952,279.475573 L0.778766952,279.475573 Z" id="Shape" fill="#000000"></path>
                <path d="M1.5156003,330.245264 C1.21008403,327.200399 1.03036858,324.119641 0.814710042,321.044865 C1.03036858,324.113659 1.21008403,327.200399 1.5156003,330.245264 L1.5156003,330.245264 Z" id="Shape" fill="#000000"></path>
                <path d="M34.9426741,440.21336 C34.7749397,439.890329 34.6191863,439.57328 34.4514519,439.250249 C34.6131958,439.57328 34.7689492,439.896311 34.9426741,440.21336 L34.9426741,440.21336 Z" id="Shape" fill="#000000"></path>
                <path d="M22.8178717,414.598205 C22.518346,413.880359 22.2487728,413.144566 21.9552375,412.420738 C22.2487728,413.144566 22.5123554,413.880359 22.8178717,414.598205 L22.8178717,414.598205 Z" id="Shape" fill="#000000"></path>
                <path d="M11.5017888,217.95015 C12.1128214,215.808574 12.6759298,213.643071 13.3348864,211.519442 C12.6759298,213.643071 12.1128214,215.808574 11.5017888,217.95015 L11.5017888,217.95015 Z" id="Shape" fill="#000000"></path>
                <path d="M7.70979283,232.677966 C8.24893918,230.327019 8.74016141,227.958126 9.33921291,225.631107 C8.74016141,227.958126 8.24893918,230.327019 7.70979283,232.677966 L7.70979283,232.677966 Z" id="Shape" fill="#000000"></path>
                <path d="M41.8677095,452.500499 C41.7598802,452.327019 41.6640319,452.141575 41.5621932,451.962114 C41.6640319,452.147557 41.7598802,452.327019 41.8677095,452.500499 L41.8677095,452.500499 Z" id="Shape" fill="#000000"></path>
                <path d="M4.64863965,247.728814 C5.1039188,245.15653 5.51127382,242.566301 6.02645811,240.017946 C5.51127382,242.560319 5.1039188,245.15653 4.64863965,247.728814 L4.64863965,247.728814 Z" id="Shape" fill="#000000"></path>
                <path d="M88.8573093,504.017946 C38.5669357,452.249252 7.27248523,382.031904 6.09834429,304.48654 L0.10782927,304.48654 C0.161743905,308.081755 0.203677511,311.670987 0.377402446,315.236291 C0.473250686,317.186441 0.676928197,319.100698 0.808719527,321.044865 C1.02437807,324.119641 1.20409352,327.200399 1.50960978,330.245264 C1.76121142,332.781655 2.13262335,335.288136 2.45611116,337.80658 C2.76162742,340.205384 3.01322905,342.622134 3.37265996,345.002991 C3.80996755,347.904287 4.36708545,350.775673 4.88826025,353.653041 C5.24170064,355.60319 5.54122639,357.565304 5.93660038,359.509472 C6.583576,362.691924 7.3383809,365.838485 8.08719527,368.985045 C8.45860721,370.564307 8.78808553,372.161515 9.18345952,373.728814 C10.0520842,377.150548 11.0345287,380.536391 12.0229636,383.904287 C12.3883851,385.154536 12.7058824,386.41675 13.0892753,387.661017 C14.1975206,391.268195 15.4135951,394.821535 16.6536317,398.374875 C16.9891006,399.337986 17.2946169,400.325025 17.6420667,401.288136 C18.9959231,405.038883 20.4516183,408.741775 21.949247,412.420738 C22.2427823,413.144566 22.5063649,413.880359 22.8118812,414.598205 C24.4233297,418.462612 26.1306265,422.279163 27.8978284,426.065803 C28.1314585,426.568295 28.3411265,427.07677 28.5807472,427.57328 C30.4497878,431.515454 32.4146768,435.409771 34.4454614,439.250249 C34.6131958,439.57328 34.7689492,439.890329 34.9366836,440.21336 C37.0573259,444.185444 39.2678259,448.097707 41.5562027,451.962114 C41.6640319,452.141575 41.7598802,452.327019 41.8617189,452.500499 C44.2219819,456.4666 46.6721025,460.366899 49.2120809,464.21336 C49.260005,464.285145 49.3019386,464.350947 49.3438722,464.422732 C51.9257842,468.329013 54.5975539,472.169492 57.3531908,475.95015 C57.3591813,475.956132 57.3651718,475.968096 57.3711623,475.98006 C65.6800067,487.345962 74.7676179,498.113659 84.56211,508.19342 C84.5800815,508.211366 84.5980531,508.235294 84.6160246,508.25324 L88.8573093,504.017946 L88.8573093,504.017946 Z" id="Shape" fill="#000000"></path>
                <path d="M6.09834429,295.51346 C7.27248523,217.956132 38.5549547,147.732802 88.8573093,95.9820538 L84.6280057,91.7587238 C81.9322739,94.5284148 79.2605042,97.328016 76.6726017,100.199402 C76.2352941,100.68993 75.8159581,101.198405 75.3786505,101.694915 C72.6709377,104.739781 70.011149,107.820538 67.429237,110.973081 C66.9080622,111.613161 66.41684,112.271186 65.9016557,112.917248 C63.4455446,115.968096 61.031367,119.036889 58.6950661,122.18345 C58.0960146,122.985045 57.5388967,123.81655 56.9518263,124.63011 C54.7533073,127.657029 52.5727598,130.701894 50.4820701,133.818544 C49.8291039,134.793619 49.2180714,135.804586 48.5770863,136.785643 C46.6181879,139.782652 44.6712705,142.785643 42.8202013,145.854437 C42.1253016,147.008973 41.478326,148.205384 40.7954073,149.365902 C39.0701389,152.321037 37.3448706,155.270189 35.7154505,158.285145 C34.9965887,159.619143 34.3436226,160.983051 33.6427323,162.329013 C32.1331226,165.224327 30.6175223,168.119641 29.1977702,171.074776 C28.4549463,172.618146 27.7899992,174.197408 27.0771279,175.758724 C25.7891672,178.570289 24.4832349,181.36989 23.2791414,184.229312 C22.5482985,185.97009 21.9013229,187.74676 21.2004326,189.499501 C20.1101589,192.2333 18.9959231,194.949153 17.9835261,197.718843 C17.2766453,199.657029 16.6596223,201.631107 15.9946751,203.587238 C15.0960978,206.231306 14.155587,208.851446 13.3288959,211.531406 C12.6699393,213.655035 12.1068309,215.820538 11.4957983,217.962114 C10.7649555,220.516451 9.99816956,223.058824 9.3332224,225.637089 C8.7341709,227.964108 8.24294866,230.333001 7.70380231,232.683948 C7.1406939,235.130608 6.52367085,237.55334 6.02046759,240.023928 C5.5052833,242.572283 5.09792828,245.162512 4.64264914,247.734796 C4.23529412,250.04985 3.76803395,252.340977 3.40860305,254.673978 C2.97728596,257.527418 2.66577918,260.41675 2.3123388,263.294118 C2.06073717,265.387836 1.73724936,267.457627 1.52159081,269.56331 C1.19211249,272.847458 0.994425493,276.167498 0.766785922,279.481555 C0.646975622,281.222333 0.461269656,282.939182 0.377402446,284.685942 C0.197686996,288.275174 0.15575339,291.900299 0.101838755,295.519442 L6.09834429,295.519442 L6.09834429,295.51346 Z" id="Shape" fill="#000000"></path>
                <path d="M95.2431983,89.665005 C147.091106,39.4755733 217.377818,8.15952144 295.032865,6.99302094 L295.032865,1.0109671 C228.687911,1.99202393 167.560696,24.4965105 118.366586,61.8484546 C118.312672,61.890329 118.258757,61.9322034 118.210833,61.9740778 C114.496714,64.7976072 110.84849,67.7048853 107.272152,70.6959123 C107.12838,70.8215354 106.990598,70.9471585 106.846826,71.0667996 C103.372327,73.9860419 99.9577336,76.9770688 96.6210167,80.0398804 C96.3694151,80.2731805 96.123804,80.5184447 95.8722023,80.7517448 C94.2248107,82.2771685 92.6373242,83.8683948 91.0198852,85.4356929 L95.2431983,89.665005 L95.2431983,89.665005 Z" id="Shape" fill="#000000"></path>
                <path id="Shape" fill="#000000" d="M299.525751,0.897308076 L299.51976,0.897308076 L299.525751,0.897308076 L299.525751,0.897308076 Z"></path>
                <path d="M295.032865,0.897308076 L295.032865,1.0109671 C296.530493,0.987038883 298.016141,0.897308076 299.51976,0.897308076 L295.032865,0.897308076 L295.032865,0.897308076 Z" id="Shape" fill="#000000"></path>
                <path d="M299.525751,0.897308076 C299.51976,0.897308076 299.51976,0.897308076 299.525751,0.897308076 C298.016141,0.897308076 296.530493,0.987038883 295.032865,1.0109671 L295.032865,1.0109671 C296.530493,0.987038883 298.016141,0.897308076 299.525751,0.897308076 L299.525751,0.897308076 Z" id="Shape" fill="#000000"></path>
                <path d="M304.018637,1.0109671 L304.018637,0.897308076 L299.525751,0.897308076 C299.765371,0.897308076 300.004992,0.909272183 300.244613,0.915254237 C301.508611,0.915254237 302.754638,0.993020937 304.018637,1.0109671 L304.018637,1.0109671 Z" id="Shape" fill="#000000"></path>
                <path d="M304.018637,1.0109671 L304.018637,1.0109671 C302.760629,0.993020937 301.508611,0.915254237 300.244613,0.915254237 C301.502621,0.939182453 302.754638,0.993020937 304.018637,1.0109671 L304.018637,1.0109671 Z" id="Shape" fill="#000000"></path>
                <path d="M300.244613,0.915254237 C300.004992,0.909272183 299.765371,0.897308076 299.525751,0.897308076 L299.525751,0.897308076 C299.765371,0.897308076 299.999002,0.915254237 300.244613,0.915254237 L300.244613,0.915254237 Z" id="Shape" fill="#000000"></path>
                <path d="M90.947999,514.558325 L90.9779516,514.594217 L90.947999,514.558325 Z" id="Shape" fill="#000000"></path>
                <path d="M514.423496,91.7527418 L514.423496,91.7527418 L514.35161,91.6749751 L514.423496,91.7527418 Z" id="Shape" fill="#000000"></path>
                <path d="M508.06756,85.4057827 L508.06756,85.4057827 L508.139446,85.4775673 L508.06756,85.4057827 Z" id="Shape" fill="#000000"></path>
            </g>
            <g id="Group" transform="translate(0.000000, 0.897308)" sketch:type="MSShapeGroup">
                <path d="M299.526049,0 C134.103803,0 0,133.914257 0,299.102692 C0,464.291127 134.103803,598.205384 299.526049,598.205384 C464.948296,598.205384 599.052098,464.285145 599.052098,299.102692 C599.052098,133.920239 464.948296,0 299.526049,0 L299.526049,0 Z M299.52374,548.353687 C161.885096,548.353687 50.2887394,436.909533 50.2887394,299.470961 C50.2887394,162.026859 161.885096,50.5882353 299.52374,50.5882353 C437.162384,50.5882353 548.758741,162.026859 548.758741,299.470961 C548.758741,436.909533 437.156846,548.353687 299.52374,548.353687 L299.52374,548.353687 Z" id="Shape" fill="#888888"></path>
                <g transform="translate(103.855562, 29.910269)">
                    <path d="M65.4363924,288.364905 C65.4363924,275.443669 75.9317747,264.963111 88.8652966,264.963111 C101.8108,264.963111 112.306182,275.437687 112.306182,288.364905 L88.8652966,324.478564 L65.4363924,288.364905 L65.4363924,288.364905 Z" id="Shape"></path>
                    <path d="M138.448789,6.13758724 L138.400865,6.14356929 L138.448789,6.13758724 Z" id="Shape"></path>
                    <path d="M230.475081,2.30907278 C230.888427,2.36291127 231.313753,2.4107677 231.733089,2.46460618 C231.313753,2.4107677 230.888427,2.36291127 230.475081,2.30907278 L230.475081,2.30907278 Z" id="Shape"></path>
                    <path d="M216.133788,0.849451645 C217.523588,0.957128614 218.925368,1.04087737 220.309177,1.1665005 C218.919378,1.04087737 217.523588,0.957128614 216.133788,0.849451645 L216.133788,0.849451645 Z" id="Shape"></path>
                    <path d="M195.670189,0 C199.917464,0 204.134787,0.125623131 208.334138,0.323030907 C204.140777,0.119641077 199.911474,0 195.670189,0 L195.670189,0 Z" id="Shape"></path>
                    <path d="M179.274149,0.538384845 C179.927115,0.502492522 180.568101,0.424725823 181.221067,0.394815553 C180.568101,0.430707876 179.927115,0.502492522 179.274149,0.538384845 L179.274149,0.538384845 Z" id="Shape"></path>
                    <path d="M165.837424,1.67497507 C166.13695,1.64506481 166.430485,1.59720837 166.72402,1.56131605 C166.430485,1.59720837 166.13695,1.64506481 165.837424,1.67497507 L165.837424,1.67497507 Z" id="Shape"></path>
                    <path d="M297.140293,362.805599 L98.9428513,164.888097 L189.688391,74.2707296 L387.885832,272.188231 L297.140293,362.805599 L297.140293,362.805599 Z" id="Rectangle-path"></path>
                    <ellipse id="Oval" cx="88.8772776" cy="286.348953" rx="10.8548132" ry="10.8394816"></ellipse>
                    <path d="M256.959148,7.07676969 L256.929195,7.07078764 L256.959148,7.07676969 L256.959148,7.07676969 Z" id="Shape" fill="#FFFFFF"></path>
                    <path d="M381.55587,464.033898 L381.567851,464.027916 L381.55587,464.033898 L381.55587,464.033898 Z" id="Shape" fill="#FFFFFF"></path>
                    <path d="M3.48248606,457.890329 L3.48847658,457.896311 L3.48248606,457.890329 L3.48248606,457.890329 Z" id="Shape" fill="#FFFFFF"></path>
                    <path id="Shape" fill="#FFFFFF" d="M455.760379,339.966102 L455.760379,339.942173 L455.760379,339.966102 L455.760379,339.966102 Z"></path>
                    <path d="M460.127465,216.963111 L460.115484,216.90329 L460.127465,216.969093 L460.127465,216.963111 Z" id="Shape" fill="#FFFFFF"></path>
                    <path d="M457.030369,203.132602 L457.030369,203.132602 L457.036359,203.144566 L457.030369,203.132602 Z" id="Shape" fill="#FFFFFF"></path>
                    <path d="M459.085115,326.380857 L459.085115,326.380857 C459.073134,326.434696 459.061153,326.482552 459.049172,326.530409 C459.061153,326.47657 459.073134,326.428714 459.085115,326.380857 L459.085115,326.380857 Z" id="Shape" fill="#FFFFFF"></path>
                    <path d="M0.55312422,83.5633101 L0.55312422,83.5633101 L0.56510525,83.551346 L0.55312422,83.5633101 Z" id="Shape" fill="#FFFFFF"></path>
                    <path d="M247.967385,533.276171 L248.02729,533.270189 L247.967385,533.276171 L247.967385,533.276171 Z" id="Shape" fill="#FFFFFF"></path>
                    <path d="M138.400865,6.14356929 C138.352941,6.1555334 138.305017,6.16749751 138.263083,6.17946162 C138.305017,6.16749751 138.352941,6.1555334 138.400865,6.14356929 L138.400865,6.14356929 L138.400865,6.14356929 Z" id="Shape" fill="#FFFFFF"></path>
                    <path d="M195.826626,52.5423729 C96.7234445,52.5423729 16.302521,132.80387 16.302521,231.85875 L195.826626,508.579857 L375.442536,231.85875 C375.442536,132.849708 295.021612,52.5423729 195.826626,52.5423729 L195.826626,52.5423729 Z M195.918431,299.469092 C149.970175,299.469092 112.743366,262.249026 112.743366,216.411506 C112.743366,170.573986 150.016077,133.399758 195.918431,133.399758 C241.774882,133.399758 279.047593,170.573986 279.047593,216.411506 C279.047593,262.249026 241.774882,299.469092 195.918431,299.469092 L195.918431,299.469092 Z" id="Shape" fill="#E39A21"></path>
                    <path d="M220.309177,1.1665005 C223.71179,1.48354935 227.108412,1.8664008 230.475081,2.30907278 C227.102421,1.87238285 223.71778,1.4775673 220.309177,1.1665005 L220.309177,1.1665005 Z" id="Shape" fill="#FFFFFF"></path>
                    <path d="M208.334138,0.323030907 C210.951993,0.448654038 213.539895,0.652043868 216.133788,0.849451645 C213.539895,0.658025922 210.946002,0.442671984 208.334138,0.323030907 L208.334138,0.323030907 Z" id="Shape" fill="#FFFFFF"></path>
                    <path d="M166.72402,1.56729811 C170.875447,1.11864407 175.068808,0.801595214 179.274149,0.544366899 C175.068808,0.795613161 170.881438,1.12462612 166.72402,1.56729811 L166.72402,1.56729811 Z" id="Shape" fill="#FFFFFF"></path>
                    <path d="M138.448789,6.13758724 C147.422581,4.19940179 156.564107,2.70987039 165.837424,1.67497507 C156.558116,2.69790628 147.422581,4.19940179 138.448789,6.13758724 L138.448789,6.13758724 Z" id="Shape" fill="#FFFFFF"></path>
                    <path d="M181.221067,0.394815553 C186.007488,0.137587238 190.817872,0 195.670189,0 C190.817872,0 186.007488,0.137587238 181.221067,0.394815553 L181.221067,0.394815553 Z" id="Shape" fill="#FFFFFF"></path>
                    <path d="M455.760379,339.942173 C456.964473,335.515454 458.066728,331.046859 459.049172,326.530409 C458.060737,331.046859 456.970463,335.515454 455.760379,339.942173 L455.760379,339.942173 Z" id="Shape" fill="#FFFFFF"></path>
                    <path d="M256.929195,7.07078764 C248.668275,5.15054835 240.263583,3.61316052 231.733089,2.47058824 C235.471171,2.97906281 239.19128,3.55333998 242.887428,4.20538385 C247.607954,5.03688933 252.298527,5.99401795 256.929195,7.07078764 L256.929195,7.07078764 Z" id="Shape" fill="#FFFFFF"></path>
                    <path d="M457.036359,203.144566 C458.180547,207.684945 459.198935,212.27318 460.115484,216.90329 C459.204926,212.27318 458.186538,207.684945 457.036359,203.144566 L457.036359,203.144566 Z" id="Shape" fill="#FFFFFF"></path>
                </g>
            </g>
        </g>
    </g>
</svg>